# Blender v2.77 (sub 0) OBJ File: 'wireframe.blend'
# www.blender.org
mtllib wireframe_sort_cursor.mtl
o wireframe_single
v -359.208984 235.030518 -372.490479
v -90.417694 511.217773 -167.719406
v -50.724998 694.887756 -81.325081
v -64.365204 700.206848 -81.325081
v -74.782898 667.328369 -94.172981
v -93.198395 627.307983 -108.319992
v -133.258499 583.809265 -131.005203
v -226.187805 534.381592 -176.383606
v -74.148895 711.608643 -81.325073
v -116.030602 669.521057 -95.536789
v -156.553497 643.714783 -109.780685
v -317.394897 631.900818 -170.525192
v -156.553497 897.783752 -109.780746
v -116.030602 871.977661 -95.536865
v -90.973602 851.857178 -88.628151
v -74.034599 829.875549 -81.325058
v -82.728401 819.484558 -81.325058
v -151.005188 855.026489 -96.504761
v -261.942383 846.430481 -129.948151
v -314.065796 734.198853 -149.893280
v -261.942383 695.068176 -129.948074
v -151.005188 686.471985 -96.504776
v -81.263100 723.304871 -81.325073
v -83.503998 807.290955 -81.325058
v -204.563202 817.268860 -104.286560
v -238.138504 791.122681 -114.823151
v -204.563202 724.229797 -104.286469
v -83.829102 733.397156 -81.325073
v -84.940994 744.448242 -81.325073
v -110.033203 737.009888 -82.821274
v -165.801910 744.156799 -91.890877
v -165.801910 797.341980 -91.890869
v -146.852402 805.506653 -88.228256
v -110.033203 804.488892 -82.821259
v -84.660904 797.576843 -81.325066
v 13.284199 751.570557 -81.325073
v 16.290802 739.260376 -81.770576
v 14.344101 708.366577 -85.206383
v -53.492100 655.700562 -98.491486
v -90.973900 689.641357 -88.628181
v -96.646194 708.366699 -85.206383
v -99.193901 725.405151 -82.997070
v -98.592804 739.260376 -81.770676
v -94.593796 751.733398 -81.325073
v -104.589203 751.461548 -81.325073
v -114.234901 720.644348 -84.826172
v -117.819397 699.049377 -88.811584
v -64.131897 601.731689 -119.113190
v -18.170198 601.731689 -119.113083
v 31.932800 720.644348 -84.826172
v 27.731003 737.009766 -82.821274
v 23.260498 751.650757 -81.325073
v 34.104103 751.493896 -81.325073
v 45.246498 735.991943 -84.980774
v 58.468704 716.511353 -89.093575
v 68.702904 686.471985 -96.504669
v 74.251198 643.714783 -109.780792
v -140.770798 716.511353 -89.093475
v -127.548698 735.991943 -84.980774
v -116.457199 751.575989 -81.325073
v -129.273697 761.545593 -81.325066
v -407.769226 499.972595 -264.903198
v -122.769501 756.465942 -81.325066
v -146.852402 735.991943 -88.228172
v -170.982101 715.293091 -95.679276
v -205.180893 681.461853 -111.515884
v -224.375900 618.679871 -136.949493
v -164.958710 406.119812 -241.770706
v 142.073700 618.679871 -136.949585
v 122.878708 681.461853 -111.515884
v 64.550301 735.991943 -88.228271
v 40.110603 756.385254 -81.325066
v 47.005600 761.466064 -81.325066
v 83.499702 744.156555 -91.890877
v 122.261093 724.229797 -104.286575
v 179.640305 695.068054 -129.948074
v 235.092606 631.900635 -170.525085
v 325.466797 499.972717 -264.903320
v 143.885605 534.381714 -176.383499
v 50.956398 583.809387 -131.005203
v 10.896301 627.307983 -108.319885
v -7.519299 667.328369 -94.172882
v -18.871500 702.060791 -81.325081
v 276.906799 235.030518 -372.490540
v 82.656700 406.119812 -241.770828
v 8.115501 511.217590 -167.719406
v -28.809999 655.700562 -98.491486
v -31.953300 695.085754 -81.325081
v -435.208069 700.304321 -220.921173
v -238.138596 750.375977 -114.823166
v -179.273605 759.619995 -95.115768
v -137.008698 767.054199 -81.325066
v -639.661011 1019.266418 -363.145447
v -435.208069 841.194458 -220.921158
v -314.065674 807.299683 -149.893265
v -179.273605 781.878662 -95.115868
v -137.008606 774.457092 -81.325066
v -317.394897 909.597717 -170.525040
v -128.403107 780.508667 -81.325066
v 179.640198 846.430298 -129.948059
v 122.261093 817.268799 -104.286560
v 83.499702 797.341858 -91.890869
v 46.787498 780.541077 -81.325066
v 40.210304 784.783264 -81.325066
v 64.550301 805.506592 -88.228157
v 88.680008 826.205444 -95.679352
v 143.885605 1007.117004 -176.383530
v 82.656799 1135.378418 -241.770798
v -164.958710 1135.378418 -241.770706
v -226.187805 1007.116943 -176.383530
v -224.375900 922.818542 -136.949539
v -205.180893 860.036682 -111.515961
v -170.982193 826.205444 -95.679260
v -122.255302 785.376465 -81.325066
v -407.915405 1041.525757 -264.903137
v -93.198395 914.190552 -108.319839
v -74.782898 874.170166 -94.172951
v -64.365097 841.304382 -81.325058
v -53.491898 885.798096 -98.491348
v -50.367298 846.617981 -81.325058
v -31.571098 846.597046 -81.325058
v -94.991699 789.648499 -81.325066
v -98.592804 802.238342 -81.770569
v -99.193901 816.093445 -82.996956
v -96.646194 833.131958 -85.206360
v -28.809999 885.797974 -98.491547
v 14.344002 833.131958 -85.206360
v 16.891701 816.093567 -82.997055
v 10.590702 790.001648 -81.325066
v -8.266800 711.621155 -81.325073
v 8.671700 689.641541 -88.628181
v 33.728401 669.520996 -95.536789
v 352.905823 700.304260 -220.921280
v 352.905884 841.194458 -220.921265
v 235.092606 909.597717 -170.525146
v 142.073700 922.818359 -136.949646
v 74.251297 897.783752 -109.780746
v 33.728401 871.977539 -95.536865
v 8.671700 851.857178 -88.628250
v -8.266800 829.875488 -81.325058
v -17.693499 841.083557 -81.325058
v -7.519398 874.170166 -94.172951
v 10.896202 914.190552 -108.319946
v 50.956398 957.689087 -131.005142
v 325.466919 1041.526001 -264.903320
v 231.763504 734.198975 -149.893280
v 155.836304 750.375977 -114.823166
v 54.701599 767.054199 -81.325066
v 54.701599 774.456970 -81.325066
v 231.763504 807.299683 -149.893265
v -1.246098 723.304993 -81.325073
v 35.517204 699.049561 -88.811478
v 122.878708 860.036682 -111.515961
v 0.421600 819.484558 -81.325058
v 1.838902 807.314758 -81.325058
v 155.836304 791.122559 -114.823151
v 88.680099 715.293091 -95.679276
v 16.891701 725.405151 -82.996971
v 1.702499 732.246643 -81.325073
v 2.416500 742.251160 -81.325073
v 96.971405 759.620239 -95.115868
v 96.971405 781.878540 -95.115868
v 16.290802 802.238342 -81.770569
v 2.743599 796.434753 -81.325066
v 34.150200 789.935181 -81.330467
v 45.246498 805.506653 -84.980759
v 58.468704 824.987183 -89.093559
v 68.703003 855.026550 -96.504761
v 8.115601 1030.280640 -167.719330
v -90.417496 1030.280640 -167.719330
v -133.258606 957.688965 -131.005142
v -140.770798 824.987244 -89.093460
v -127.548698 805.506592 -84.980759
v -116.457199 789.934998 -81.325066
v -105.441902 789.495056 -81.325066
v -114.234901 820.854065 -84.826057
v -117.819397 842.449097 -88.811455
v -64.132004 939.766846 -119.113037
v -18.170198 939.766846 -119.113037
v 35.517204 842.449097 -88.811455
v 31.932800 820.854187 -84.826057
v 27.731003 804.488770 -82.821259
v 21.829700 789.632141 -81.325066
v -639.660767 522.232544 -363.145508
v -713.535400 95.943123 -404.540955
v 631.232910 1445.555786 -404.541138
v 557.358398 1019.266357 -363.145630
v 557.358337 522.231995 -363.145691
v 631.233032 95.942825 -404.541077
v -713.535156 1445.555908 -404.540955
v -359.209412 1306.467896 -372.490479
v 276.906616 1306.468018 -372.490356
vn -0.1741 0.2014 0.9639
vn -0.2547 0.4482 0.8569
vn -0.4330 0.2492 0.8663
vn -0.3511 0.3798 0.8559
vn -0.5711 -0.0000 0.8209
vn -0.1406 0.5056 0.8513
vn -0.0000 0.6071 0.7946
vn -0.4626 0.1608 0.8719
vn -0.2132 0.4056 0.8888
vn -0.3578 0.2582 0.8974
vn -0.5058 0.0000 0.8627
vn 0.0000 0.5760 0.8175
vn -0.2511 0.2809 0.9263
vn -0.3896 0.0832 0.9172
vn -0.0348 0.4559 0.8894
vn -0.3183 0.1535 0.9355
vn -0.1146 0.3601 0.9259
vn -0.4193 0.0000 0.9078
vn 0.0000 0.4731 0.8810
vn -0.2306 0.1872 0.9549
vn -0.1507 0.2563 0.9548
vn -0.3044 0.0292 0.9521
vn -0.4626 -0.1608 0.8719
vn -0.2517 0.0814 0.9644
vn 0.0204 0.3524 0.9356
vn -0.0474 0.2994 0.9530
vn -0.3175 0.0000 0.9483
vn -0.1458 0.1759 0.9736
vn -0.3896 -0.0832 0.9172
vn -0.1913 0.1031 0.9761
vn -0.0828 0.2173 0.9726
vn 0.0000 0.3569 0.9341
vn 0.0348 0.4559 0.8894
vn -0.1316 0.1043 0.9858
vn 0.1406 0.5056 0.8513
vn -0.0872 0.1554 0.9840
vn -0.3044 -0.0292 0.9521
vn -0.2568 0.1197 0.9590
vn -0.2033 0.1184 0.9719
vn -0.4329 -0.2495 0.8663
vn -0.1525 0.2729 0.9499
vn -0.3102 0.0000 0.9507
vn -0.1517 0.1379 0.9788
vn -0.0659 0.3731 0.9254
vn -0.1405 0.1837 0.9729
vn -0.0833 0.0928 0.9922
vn -0.0204 0.3524 0.9356
vn -0.0681 0.1317 0.9889
vn -0.1186 0.0882 0.9890
vn 0.0002 0.4012 0.9160
vn -0.2600 -0.1155 0.9587
vn -0.3183 -0.1535 0.9355
vn -0.0424 0.0576 0.9974
vn -0.0472 0.0530 0.9975
vn -0.2517 -0.0814 0.9644
vn -0.3578 -0.2582 0.8974
vn -0.2035 -0.1224 0.9714
vn 0.0678 0.3722 0.9257
vn -0.1507 -0.1396 0.9787
vn -0.1913 -0.1031 0.9761
vn 0.0474 0.2994 0.9530
vn 0.1146 0.3601 0.9259
vn -0.2306 -0.1872 0.9549
vn -0.0686 -0.1318 0.9889
vn 0.1516 0.2730 0.9500
vn -0.1316 -0.1043 0.9858
vn -0.0422 -0.0572 0.9975
vn -0.0833 -0.0928 0.9922
vn -0.1458 -0.1759 0.9736
vn -0.2511 -0.2809 0.9263
vn 0.1406 0.1837 0.9729
vn -0.0500 -0.0501 0.9975
vn 0.2132 0.4056 0.8888
vn 0.0828 0.2173 0.9726
vn -0.3512 -0.3799 0.8558
vn -0.0872 -0.1554 0.9840
vn 0.2548 0.4481 0.8569
vn -0.1040 -0.1002 0.9895
vn 0.1191 0.0910 0.9887
vn 0.1507 0.2563 0.9548
vn -0.1507 -0.2563 0.9548
vn 0.0872 0.1554 0.9840
vn 0.0483 0.0501 0.9976
vn -0.0828 -0.2173 0.9726
vn -0.1437 -0.1700 0.9749
vn 0.0833 0.0928 0.9922
vn 0.1458 0.1759 0.9736
vn 0.0418 0.0536 0.9977
vn 0.2511 0.2809 0.9263
vn 0.1316 0.1043 0.9858
vn -0.1521 -0.2734 0.9498
vn -0.2132 -0.4056 0.8888
vn 0.0660 0.1304 0.9893
vn -0.0474 -0.2994 0.9530
vn -0.1146 -0.3601 0.9259
vn 0.2306 0.1872 0.9549
vn 0.1527 0.1356 0.9789
vn 0.1913 0.1031 0.9761
vn -0.0667 -0.3732 0.9254
vn 0.2006 0.1259 0.9715
vn 0.0552 -0.0515 0.9971
vn 0.0428 -0.0600 0.9973
vn 0.0018 -0.4004 0.9163
vn 0.2518 0.0814 0.9644
vn 0.3512 0.3799 0.8558
vn 0.1034 -0.1060 0.9890
vn 0.0698 -0.1328 0.9887
vn 0.0204 -0.3524 0.9356
vn 0.2604 0.1149 0.9586
vn 0.0833 -0.0928 0.9922
vn 0.1430 -0.1694 0.9751
vn 0.0786 -0.3609 0.9293
vn 0.1290 -0.2742 0.9530
vn 0.3183 0.1535 0.9355
vn 0.1521 -0.1372 0.9788
vn 0.3578 0.2582 0.8974
vn 0.3102 0.0000 0.9507
vn 0.0872 -0.1554 0.9840
vn 0.2015 -0.1245 0.9715
vn 0.1316 -0.1043 0.9858
vn 0.2603 -0.1149 0.9587
vn 0.3044 0.0292 0.9521
vn -0.0348 -0.4559 0.8894
vn -0.0000 -0.3569 0.9341
vn 0.0828 -0.2173 0.9726
vn 0.1913 -0.1031 0.9761
vn 0.1458 -0.1759 0.9736
vn 0.0474 -0.2994 0.9530
vn -0.0204 -0.3524 0.9356
vn -0.1406 -0.5056 0.8513
vn 0.3175 -0.0000 0.9483
vn 0.2518 -0.0814 0.9644
vn 0.3896 0.0832 0.9172
vn 0.3044 -0.0292 0.9521
vn 0.1507 -0.2563 0.9548
vn -0.2548 -0.4481 0.8569
vn 0.2306 -0.1872 0.9549
vn -0.0000 -0.4731 0.8810
vn 0.1146 -0.3601 0.9259
vn -0.1741 -0.2014 0.9639
vn 0.3183 -0.1535 0.9355
vn 0.0348 -0.4559 0.8894
vn 0.4626 0.1608 0.8719
vn 0.4193 -0.0000 0.9078
vn 0.2511 -0.2809 0.9263
vn 0.3896 -0.0832 0.9172
vn 0.2132 -0.4056 0.8888
vn 0.4329 0.2495 0.8663
vn 0.0000 -0.5760 0.8175
vn 0.3578 -0.2582 0.8974
vn 0.1741 0.2014 0.9639
vn 0.5058 -0.0000 0.8627
vn 0.1406 -0.5056 0.8513
vn 0.4626 -0.1608 0.8719
vn 0.3512 -0.3799 0.8558
vn 0.0000 -0.6071 0.7946
vn 0.5711 -0.0000 0.8209
vn 0.2548 -0.4481 0.8569
vn 0.4329 -0.2495 0.8663
vn 0.1741 -0.2014 0.9639
usemtl None
s off
f 93//1 115//1 191//1 190//1
f 110//2 109//2 191//2 115//2
f 98//3 115//3 93//3 94//3
f 111//4 110//4 115//4 98//4
f 93//5 184//5 89//5 94//5
f 110//6 171//6 170//6 109//6
f 108//7 192//7 191//7 109//7
f 95//8 19//8 98//8 94//8
f 13//9 171//9 110//9 111//9
f 19//10 112//10 111//10 98//10
f 20//11 95//11 94//11 89//11
f 170//12 169//12 108//12 109//12
f 18//13 13//13 111//13 112//13
f 26//14 25//14 19//14 95//14
f 116//15 178//15 170//15 171//15
f 19//16 25//16 113//16 112//16
f 171//17 13//17 14//17 116//17
f 26//18 95//18 20//18 90//18
f 178//19 179//19 169//19 170//19
f 113//20 172//20 18//20 112//20
f 177//21 14//21 13//21 18//21
f 32//22 25//22 26//22 96//22
f 21//23 20//23 89//23 12//23
f 33//24 113//24 25//24 32//24
f 119//25 178//25 116//25 117//25
f 15//26 117//26 116//26 14//26
f 91//27 96//27 26//27 90//27
f 172//28 176//28 177//28 18//28
f 20//29 21//29 27//29 90//29
f 172//30 113//30 33//30 173//30
f 14//31 177//31 125//31 15//31
f 126//32 179//32 178//32 119//32
f 144//33 169//33 179//33 143//33
f 173//34 34//34 176//34 172//34
f 108//35 169//35 144//35 107//35
f 177//36 176//36 124//36 125//36
f 90//37 27//37 31//37 91//37
f 97//38 99//38 32//38 96//38
f 99//39 114//39 33//39 32//39
f 184//40 62//40 12//40 89//40
f 16//41 118//41 117//41 15//41
f 92//42 97//42 96//42 91//42
f 114//43 174//43 173//43 33//43
f 118//44 120//44 119//44 117//44
f 125//45 17//45 16//45 15//45
f 124//46 176//46 34//46 123//46
f 143//47 179//47 126//47 142//47
f 175//48 34//48 173//48 174//48
f 125//49 124//49 24//49 17//49
f 126//50 119//50 120//50 121//50
f 61//51 92//51 91//51 31//51
f 66//52 65//52 27//52 21//52
f 122//53 123//53 34//53 175//53
f 24//54 124//54 123//54 35//54
f 27//55 65//55 64//55 31//55
f 67//56 66//56 21//56 12//56
f 64//57 63//57 61//57 31//57
f 141//58 142//58 126//58 121//58
f 63//59 64//59 59//59 60//59
f 59//60 64//60 65//60 58//60
f 138//61 143//61 142//61 139//61
f 137//62 144//62 143//62 138//62
f 58//63 65//63 66//63 22//63
f 45//64 60//64 59//64 30//64
f 142//65 141//65 140//65 139//65
f 58//66 46//66 30//66 59//66
f 45//67 30//67 43//67 44//67
f 30//68 46//68 42//68 43//68
f 47//69 46//69 58//69 22//69
f 66//70 67//70 11//70 22//70
f 140//71 154//71 127//71 139//71
f 29//72 43//72 42//72 28//72
f 107//73 144//73 137//73 136//73
f 127//74 180//74 138//74 139//74
f 62//75 8//75 67//75 12//75
f 42//76 46//76 47//76 41//76
f 192//77 108//77 107//77 145//77
f 23//78 28//78 42//78 41//78
f 127//79 154//79 155//79 128//79
f 168//80 137//80 138//80 180//80
f 11//81 10//81 47//81 22//81
f 128//82 181//82 180//82 127//82
f 164//83 163//83 128//83 155//83
f 47//84 10//84 40//84 41//84
f 41//85 40//85 9//85 23//85
f 182//86 181//86 128//86 163//86
f 180//87 181//87 167//87 168//87
f 129//88 183//88 182//88 163//88
f 137//89 168//89 153//89 136//89
f 166//90 167//90 181//90 182//90
f 40//91 5//91 4//91 9//91
f 8//92 7//92 11//92 67//92
f 165//93 166//93 182//93 183//93
f 6//94 5//94 40//94 10//94
f 10//95 11//95 7//95 6//95
f 168//96 167//96 106//96 153//96
f 105//97 166//97 165//97 104//97
f 167//98 166//98 105//98 106//98
f 4//99 5//99 39//99 3//99
f 105//100 104//100 103//100 102//100
f 160//101 159//101 158//101 37//101
f 52//102 36//102 37//102 51//102
f 88//103 3//103 39//103 87//103
f 101//104 106//104 105//104 102//104
f 145//105 107//105 136//105 135//105
f 151//106 38//106 158//106 159//106
f 51//107 54//107 53//107 52//107
f 39//108 5//108 6//108 48//108
f 149//109 162//109 102//109 103//109
f 50//110 51//110 37//110 158//110
f 131//111 38//111 151//111 130//111
f 83//112 88//112 87//112 82//112
f 131//113 130//113 83//113 82//113
f 106//114 101//114 100//114 153//114
f 53//115 54//115 71//115 72//115
f 153//116 100//116 135//116 136//116
f 162//117 149//117 148//117 161//117
f 158//118 38//118 152//118 50//118
f 74//119 73//119 72//119 71//119
f 55//120 54//120 51//120 50//120
f 73//121 74//121 161//121 148//121
f 162//122 156//122 101//122 102//122
f 6//123 7//123 2//123 48//123
f 48//124 49//124 87//124 39//124
f 152//125 38//125 131//125 132//125
f 54//126 55//126 157//126 71//126
f 152//127 56//127 55//127 50//127
f 81//128 132//128 131//128 82//128
f 87//129 49//129 81//129 82//129
f 2//130 7//130 8//130 68//130
f 147//131 156//131 162//131 161//131
f 157//132 75//132 74//132 71//132
f 150//133 100//133 101//133 156//133
f 74//134 75//134 147//134 161//134
f 56//135 152//135 132//135 57//135
f 68//136 8//136 62//136 1//136
f 70//137 157//137 55//137 56//137
f 49//138 48//138 2//138 86//138
f 132//139 81//139 80//139 57//139
f 184//140 185//140 1//140 62//140
f 75//141 157//141 70//141 76//141
f 81//142 49//142 86//142 80//142
f 135//143 100//143 150//143 134//143
f 156//144 147//144 146//144 150//144
f 69//145 70//145 56//145 57//145
f 76//146 146//146 147//146 75//146
f 79//147 69//147 57//147 80//147
f 134//148 187//148 145//148 135//148
f 2//149 68//149 85//149 86//149
f 76//150 70//150 69//150 77//150
f 187//151 186//151 192//151 145//151
f 150//152 146//152 133//152 134//152
f 86//153 85//153 79//153 80//153
f 133//154 146//154 76//154 77//154
f 78//155 77//155 69//155 79//155
f 84//156 85//156 68//156 1//156
f 187//157 134//157 133//157 188//157
f 85//158 84//158 78//158 79//158
f 77//159 78//159 188//159 133//159
f 84//160 189//160 188//160 78//160
